<svg xmlns="http://www.w3.org/2000/svg" data-name="Layer 1" viewBox="0 0 48 60" x="0px" y="0px"><path d="M26.6352,8.18878H21.3648V5.55357H18.72959V8.18878h-5.2704V5.55357H10.824V8.18878H4.236V42.44643H43.764V8.18878H37.176V5.55357H34.54081V8.18878h-5.2704V5.55357H26.6352ZM6.87118,18.72959H41.12882V39.81122H6.87118ZM10.824,10.824H6.87118v5.27041H41.12882V10.824H37.176v2.63521H34.54081V10.824h-5.2704v2.63521H26.6352V10.824H21.3648v2.63521H18.72959V10.824h-5.2704v2.63521H10.824ZM24,27.40732l-3.26106-3.26107-1.86309,1.86309,3.26106,3.26107-3.26106,3.26106,1.86309,1.86309L24,31.1335l3.26106,3.26106,1.86309-1.86309-3.26106-3.26106,3.26106-3.26107-1.86309-1.86309Z" fill-rule="evenodd"/><text x="0" y="63" fill="#000000" font-size="5px" font-weight="bold" font-family="'Helvetica Neue', Helvetica, Arial-Unicode, Arial, Sans-serif">Created by karacis studio</text><text x="0" y="68" fill="#000000" font-size="5px" font-weight="bold" font-family="'Helvetica Neue', Helvetica, Arial-Unicode, Arial, Sans-serif">from the Noun Project</text></svg>