<svg xmlns="http://www.w3.org/2000/svg" xmlns:xlink="http://www.w3.org/1999/xlink" version="1.1" x="0px" y="0px" viewBox="0 0 100 125" enable-background="new 0 0 100 100" xml:space="preserve"><path clip-path="url(#SVGID_2_)" d="M45.96,71.729L45.96,71.729c-5.584,0-10.833-2.175-14.781-6.123   c-3.949-3.946-6.124-9.194-6.124-14.778c0-5.583,2.175-10.832,6.124-14.78c3.946-3.949,9.195-6.124,14.778-6.124   s10.832,2.175,14.78,6.124c3.949,3.947,6.124,9.196,6.124,14.779c0,0.962-0.069,1.914-0.196,2.852   c0.716,0.104,1.41,0.277,2.073,0.514c0.161-1.104,0.244-2.229,0.244-3.366c0-6.15-2.396-11.931-6.745-16.279   c-4.35-4.349-10.13-6.744-16.28-6.744c-6.15,0-11.931,2.395-16.278,6.744c-4.349,4.348-6.745,10.13-6.745,16.28   c0,6.151,2.396,11.932,6.745,16.278c4.349,4.348,10.13,6.744,16.28,6.744h0.001c3.901,0,7.653-0.968,10.985-2.783   c-0.478-0.532-0.9-1.112-1.261-1.729C52.722,70.899,49.405,71.729,45.96,71.729"/><path clip-path="url(#SVGID_2_)" d="M45.667,35.382c-0.824,0-1.492,0.635-1.492,1.418v14.184c0,0.779,0.668,1.419,1.492,1.419   l0.059-0.013H57.61c0.821,0,1.494-0.636,1.494-1.417c0-0.784-0.673-1.417-1.494-1.417h-10.45V36.8   C47.161,36.017,46.487,35.382,45.667,35.382"/><path clip-path="url(#SVGID_2_)" d="M65.064,54.391c-5.486,0-9.949,4.365-9.949,9.729c0,5.365,4.463,9.73,9.949,9.73   s9.949-4.365,9.949-9.73C75.014,58.756,70.551,54.391,65.064,54.391 M65.064,73.038c-5.038,0-9.137-4-9.137-8.918   s4.099-8.918,9.137-8.918s9.137,4,9.137,8.918S70.103,73.038,65.064,73.038"/><path clip-path="url(#SVGID_2_)" d="M65.07,66.104c-0.654,0-1.112,0.47-1.112,1.124c0,0.643,0.444,1.125,1.112,1.125   s1.101-0.482,1.101-1.125C66.158,66.574,65.726,66.104,65.07,66.104"/><polygon clip-path="url(#SVGID_2_)" points="65.775,65.486 66.047,59.888 64.081,59.888 64.366,65.486  "/><text x="0" y="115" fill="#000000" font-size="5px" font-weight="bold" font-family="'Helvetica Neue', Helvetica, Arial-Unicode, Arial, Sans-serif">Created by slothali</text><text x="0" y="120" fill="#000000" font-size="5px" font-weight="bold" font-family="'Helvetica Neue', Helvetica, Arial-Unicode, Arial, Sans-serif">from the Noun Project</text></svg>